<svg xmlns="http://www.w3.org/2000/svg" viewBox="0 0 1600 1000" fill="none">
  <defs>
    <linearGradient id="bg" x1="0" y1="0" x2="1" y2="1">
      <stop offset="0%" stop-color="#000000"/>
      <stop offset="48%" stop-color="#031018"/>
      <stop offset="100%" stop-color="#000000"/>
    </linearGradient>
    <radialGradient id="mist" cx="0" cy="0" r="1" gradientUnits="userSpaceOnUse" gradientTransform="translate(1040 300) rotate(90) scale(420 520)">
      <stop stop-color="#00F0FF" stop-opacity="0.18"/>
      <stop offset="1" stop-color="#00F0FF" stop-opacity="0"/>
    </radialGradient>
  </defs>
  <rect width="1600" height="1000" fill="url(#bg)"/>
  <rect width="1600" height="1000" fill="url(#mist)"/>
  <g opacity="0.2">
    <path d="M132 164H1468" stroke="#E0E0E0" stroke-width="2"/>
    <path d="M132 836H1468" stroke="#E0E0E0" stroke-width="2"/>
  </g>
  <text x="118" y="298" font-family="Arial, Helvetica, sans-serif" font-size="228" font-weight="700" fill="#E0E0E0" fill-opacity="0.06" letter-spacing="-14">PUSHED</text>
  <g transform="translate(268 242)">
    <path d="M0 420L346 242L694 420L346 598L0 420Z" stroke="#E0E0E0" stroke-opacity="0.16" stroke-width="2"/>
    <path d="M346 242V598" stroke="#E0E0E0" stroke-opacity="0.16" stroke-width="2"/>
    <path d="M0 420L346 598L694 420" stroke="#E0E0E0" stroke-opacity="0.1" stroke-width="2"/>
    <g fill="#00F0FF" fill-opacity="0.14" stroke="#00F0FF" stroke-opacity="0.64">
      <path d="M40 394L96 366V420L40 448V394Z"/>
      <path d="M106 350L162 322V420L106 448V350Z"/>
      <path d="M172 302L228 274V420L172 448V302Z"/>
      <path d="M238 336L294 308V420L238 448V336Z"/>
      <path d="M304 248L360 220V420L304 448V248Z"/>
      <path d="M370 310L426 282V420L370 448V310Z"/>
      <path d="M436 270L492 242V420L436 448V270Z"/>
      <path d="M502 334L558 306V420L502 448V334Z"/>
      <path d="M568 290L624 262V420L568 448V290Z"/>
    </g>
  </g>
  <g>
    <rect x="986" y="282" width="360" height="214" fill="#040C10" stroke="#00F0FF" stroke-opacity="0.38"/>
    <rect x="986" y="540" width="360" height="134" fill="#040C10" stroke="#00F0FF" stroke-opacity="0.24"/>
    <g font-family="'Courier New', monospace" font-size="18" fill="#E0E0E0" fill-opacity="0.8">
      <text x="1018" y="336">commit.field[365]</text>
      <text x="1018" y="374">projection = isometric</text>
      <text x="1018" y="412">emission = restrained</text>
      <text x="1018" y="450">mood = quietly obsessive</text>
    </g>
    <path d="M1018 628H1296" stroke="#00F0FF" stroke-opacity="0.44" stroke-width="2"/>
    <path d="M1018 598H1262" stroke="#E0E0E0" stroke-opacity="0.18" stroke-width="2"/>
  </g>
  <g font-family="Arial, Helvetica, sans-serif" font-weight="700">
    <text x="182" y="140" font-size="44" letter-spacing="10" fill="#E0E0E0">GIT PUSHED</text>
    <text x="182" y="892" font-size="22" letter-spacing="8" fill="#00F0FF">TECHNICAL SCULPTURE</text>
  </g>
</svg>
